Coordinates
version=1
nRows=13
nColumns=36
inDegrees=yes

Units are S.I. units (second, meters, Newtons, ...)
If the header above contains a line with 'inDegrees', this indicates whether rotational values are in degrees (yes) or radians (no).

endheader
time	pelvis_tilt	pelvis_list	pelvis_rotation	pelvis_tx	pelvis_ty	pelvis_tz	hip_flexion_r	hip_adduction_r	hip_rotation_r	knee_angle_r	knee_angle_r_beta	ankle_angle_r	subtalar_angle_r	mtp_angle_r	hip_flexion_l	hip_adduction_l	hip_rotation_l	knee_angle_l	knee_angle_l_beta	ankle_angle_l	subtalar_angle_l	mtp_angle_l	lumbar_extension	lumbar_bending	lumbar_rotation	arm_flex_r	arm_add_r	arm_rot_r	elbow_flex_r	pro_sup_r	arm_flex_l	arm_add_l	arm_rot_l	elbow_flex_l	pro_sup_l
      0.00000000	    -31.51933773	     -7.34510765	      0.04601197	      0.06411827	      0.90945019	     -0.03997659	     55.74377794	      3.46125714	     -9.70421371	     33.08449399	      0.57743335	     12.20198615	     -8.28360156	     -5.41998013	     63.87061109	    -12.62518145	     -1.55938379	     45.57261271	      0.79539214	      8.08584524	     -4.24240551	     -5.41998013	    -24.69850267	      6.36302203	      5.47062113	     10.17646709	    -15.22652927	      7.03328209	     55.24342560	     89.32970393	     18.07355910	    -14.02777921	     11.41000899	     50.00501654	     89.79365983
      0.01666670	    -31.70620056	     -6.31203924	     -0.49872094	      0.06658137	      0.91403644	     -0.03909090	     54.27959622	      3.41219126	     -8.89284602	     30.04141409	      0.52432159	     12.05672205	     -4.75251937	     -6.42278405	     62.15742378	    -12.70697670	     -2.98885649	     43.02829018	      0.75098534	      9.18771593	      1.27431059	     -6.42278405	    -25.89165572	      4.82469189	      6.13058887	      8.84747593	    -14.19960939	     12.13888900	     56.64617585	     83.24260275	     20.29029068	    -16.65907175	     22.26180328	     48.21393377	     78.35450587
      0.03333330	    -31.64484261	     -5.56917600	     -1.17142172	      0.06135793	      0.91107983	     -0.03880407	     53.96853614	      3.60332264	     -8.11947778	     29.56948392	      0.51608485	     13.24719631	     -3.03610931	     -6.47635954	     62.33861005	    -13.23223068	     -4.51125839	     43.61494346	      0.76122437	     12.24299505	      5.83324011	     -6.47635954	    -27.73673082	      3.29533296	      6.34778579	      8.33033770	    -12.16210933	      8.52924492	     58.45817354	     83.10111669	     20.81803185	    -16.53125557	     19.15314289	     49.40605067	     77.69801261
      0.05000000	    -31.04223426	     -4.93653776	     -1.56969914	      0.05870575	      0.90661754	     -0.03762399	     53.42578940	      3.53912280	     -7.54831870	     29.63747751	      0.51727156	     13.49363782	     -1.79032346	     -6.68481467	     61.90990399	    -13.56219372	     -5.53439593	     44.02614703	      0.76840122	     13.54380565	      8.27698583	     -6.68481467	    -30.04656156	      2.09085564	      6.51198219	      8.65500703	    -10.83071033	      4.51080713	     60.35112131	     87.69413145	     21.16874270	    -15.70927913	     15.31114649	     50.63005459	     78.92281561
      0.06666670	    -30.44507510	     -4.81357626	     -1.88158622	      0.05604927	      0.90891881	     -0.03673892	     53.01500917	      3.69021326	     -7.41837952	     30.18640409	      0.52685214	     14.30129188	     -0.80874418	     -6.71951025	     61.80031093	    -14.08764640	     -5.82026553	     45.01562164	      0.78567081	     14.78674353	      9.86173124	     -6.71951025	    -32.06172565	      1.47159763	      6.87066312	      9.75857092	    -10.42234700	      2.70589742	     60.74117958	     87.71904502	     22.23135032	    -14.84903630	     13.40299701	     51.08877149	     78.49378226
      0.08333330	    -30.81215033	     -4.96612535	     -2.01923269	      0.03422618	      0.90651839	     -0.03843043	     54.69442469	      3.56065634	     -8.05433517	     31.92660288	      0.55722434	     14.99075227	     -0.11430549	     -6.75441293	     63.72988324	    -14.51352674	     -5.55800739	     46.69952219	      0.81506042	     15.33453094	     10.74704889	     -6.75441293	    -33.41304900	      1.60608301	      7.31250902	     11.13142146	    -11.03642711	      2.43366168	     61.80147768	     87.64406716	     23.69035528	    -14.57533636	     13.06946670	     52.48922899	     78.25244746
      0.10000000	    -30.97125931	     -5.12702954	     -2.11247746	      0.03436269	      0.90536675	     -0.03628314	     55.67365995	      3.58952049	     -8.43323395	     32.96104100	      0.57527869	     15.59984827	      0.18739390	     -6.79149340	     64.98437740	    -14.88259447	     -5.37517166	     47.90252902	      0.83605685	     15.80053798	     11.35091869	     -6.79149340	    -35.35965088	      1.67817686	      7.62772043	     12.54788005	    -11.56174463	      2.22056548	     63.39893858	     86.45974939	     24.64095281	    -14.42809957	     11.90919296	     54.24932812	     77.29985486
      0.11666670	    -30.83472377	     -5.57772649	     -2.12713802	      0.03429738	      0.89940595	     -0.03643062	     56.13704147	      3.81470150	     -8.94173168	     33.79135606	      0.58977042	     15.94828605	     -0.07758806	     -6.80901071	     65.82884442	    -15.28285511	     -4.81407863	     49.03823458	      0.85587865	     16.36739209	     11.89813539	     -6.80901071	    -37.49626357	      2.10192104	      8.76427243	     12.88219753	    -12.64741121	      1.87014034	     66.13748808	     87.84102367	     25.36520597	    -14.15016242	     11.67392044	     56.15751671	     77.77503744
      0.13333330	    -30.70558732	     -5.73222647	     -2.49373192	      0.03192399	      0.88836076	     -0.03621057	     57.15344066	      4.06879503	     -8.97208497	     35.63240387	      0.62190277	     16.97238759	     -0.55033248	     -6.82548814	     66.86120675	    -15.81921475	     -4.44785533	     50.83037688	      0.88715744	     17.32419496	     11.67646179	     -6.82548814	    -38.83984255	      2.09341491	      9.44467416	     13.55375816	    -13.01919466	      1.85598541	     67.06010462	     87.90290829	     25.93002830	    -14.01841914	     11.56508231	     57.22767759	     77.73579793
      0.15000000	    -30.64377843	     -6.16316667	     -2.83523206	      0.03877989	      0.87782603	     -0.02935173	     57.95589765	      4.64617240	     -9.04975050	     37.34941842	      0.65187033	     17.79613806	     -0.97600311	     -6.85473263	     67.84444533	    -16.59668601	     -3.93127240	     52.65800175	      0.91905551	     18.55752369	     12.26109079	     -6.85473263	    -40.07186549	      2.30587446	     10.50901695	     12.40184142	    -13.69220170	      1.29549406	     70.44227015	     89.00316313	     25.22800479	    -14.08119118	     11.11109838	     60.14994237	     78.20153838
      0.16666670	    -30.04695980	     -6.28792764	     -3.37137568	      0.04690952	      0.86894966	     -0.03462240	     58.17849737	      5.14278355	     -8.70889102	     39.32912295	      0.68642269	     18.81580033	     -1.58531893	     -6.87591156	     67.87425632	    -17.36650079	     -3.68356726	     54.54293559	      0.95195381	     20.06971766	     12.24518848	     -6.87591156	    -41.16807404	      2.37865667	     11.16166707	     11.47604646	    -13.76337091	      1.08551503	     71.90151146	     89.39522960	     24.48124343	    -13.90812484	     10.94072490	     61.79677493	     78.37309317
      0.18333330	    -30.08851131	     -6.36622075	     -3.55376430	      0.03208446	      0.86208277	     -0.02990590	     59.63763383	      5.17717596	     -8.76960540	     42.04323784	      0.73379293	     20.06203458	     -1.79702083	     -6.90674768	     69.22797400	    -17.80103911	     -3.16529769	     56.64582849	      0.98865621	     21.35355191	     12.37375100	     -6.90674768	    -42.05666049	      2.53392603	     11.55824600	     10.68860756	    -13.86146731	      0.60166400	     74.43713896	     90.16332635	     24.47895009	    -14.27247493	     11.25817830	     64.99955847	     78.81341589
      0.20000000	    -30.93431122	     -6.04314488	     -4.01542743	      0.01970375	      0.84780424	     -0.03657790	     62.72458856	      4.90690625	     -8.68915371	     45.70054136	      0.79762492	     21.83470575	     -1.67169732	     -6.93571674	     71.90173313	    -18.06951519	     -2.79302761	     59.45600251	      1.03770300	     22.64243490	     12.55411080	     -6.93571674	    -41.82093655	      2.41646203	     12.07802490	      9.86227667	    -14.52141886	      1.01696366	     77.59977144	     91.00415882	     24.53354476	    -14.79683104	     12.66794747	     69.27596314	     79.32883808
